HIERARCHY
ROOT Hips
{
  OFFSET 49.2104 54.4829 -9.96818
  CHANNELS 6 Xposition Yposition Zposition Zrotation Xrotation Yrotation
  JOINT spine
  {
    OFFSET 0 5.95438 0.342407
    CHANNELS 3 Zrotation Xrotation Yrotation
    JOINT spine1
    {
      OFFSET 0 8.85602 0
      CHANNELS 3 Zrotation Xrotation Yrotation
      JOINT spine2
      {
        OFFSET 0 8.48567 0
        CHANNELS 3 Zrotation Xrotation Yrotation
        JOINT Neck
        {
          OFFSET 0 21.7863 1.0387
          CHANNELS 3 Zrotation Xrotation Yrotation
          JOINT Head
          {
            OFFSET 0 6.5822 0
            CHANNELS 3 Zrotation Xrotation Yrotation
            End Site
            {
              OFFSET 0 15.9326 -5.25436
            }
          }
        }
        JOINT RightShoulder
        {
          OFFSET -3.57307 9.16386 -0.497525
          CHANNELS 3 Zrotation Xrotation Yrotation
          JOINT RightArm
          {
            OFFSET 0 12.0192 0
            CHANNELS 3 Zrotation Xrotation Yrotation
            JOINT RightArmRoll
            {
              OFFSET 0 6.06755 0
              CHANNELS 3 Zrotation Xrotation Yrotation
              JOINT RightForeArm
              {
                OFFSET 0 17.6726 0
                CHANNELS 3 Zrotation Xrotation Yrotation
                JOINT RightForeArmRoll
                {
                  OFFSET 0 6.80872 0
                  CHANNELS 3 Zrotation Xrotation Yrotation
                  JOINT RightHand
                  {
                    OFFSET 0 13.6636 0
                    CHANNELS 3 Zrotation Xrotation Yrotation
                    End Site
                    {
                      OFFSET 0 0 0
                    }
                  }
                }
              }
            }
          }
        }
        JOINT LeftShoulder
        {
          OFFSET 3.57307 9.16386 -0.497525
          CHANNELS 3 Zrotation Xrotation Yrotation
          JOINT LeftArm
          {
            OFFSET 0 12.0192 0
            CHANNELS 3 Zrotation Xrotation Yrotation
            JOINT LeftArmRoll
            {
              OFFSET 0 6.06755 0
              CHANNELS 3 Zrotation Xrotation Yrotation
              JOINT LeftForeArm
              {
                OFFSET 0 17.6726 0
                CHANNELS 3 Zrotation Xrotation Yrotation
                JOINT LeftForeArmRoll
                {
                  OFFSET 0 6.80872 0
                  CHANNELS 3 Zrotation Xrotation Yrotation
                  JOINT LeftHand
                  {
                    OFFSET 0 13.6636 0
                    CHANNELS 3 Zrotation Xrotation Yrotation
                    End Site
                    {
                      OFFSET 0 0 0
                    }
                  }
                }
              }
            }
          }
        }
      }
    }
  }
  JOINT RightUpLeg
  {
    OFFSET -5.27774 -0.967797 -0.811858
    CHANNELS 3 Zrotation Xrotation Yrotation
    JOINT RightUpLegRoll
    {
      OFFSET 0 16.0214 0
      CHANNELS 3 Zrotation Xrotation Yrotation
      JOINT RightLeg
      {
        OFFSET 0 -19.8401 0
        CHANNELS 3 Zrotation Xrotation Yrotation
        JOINT RightLegRoll
        {
          OFFSET 0 19.905 0
          CHANNELS 3 Zrotation Xrotation Yrotation
          JOINT RightFoot
          {
            OFFSET 0 16.5675 0
            CHANNELS 3 Zrotation Xrotation Yrotation
            JOINT RightToeBase
            {
              OFFSET 0 13.8496 0
              CHANNELS 3 Zrotation Xrotation Yrotation
              End Site
              {
                OFFSET 0.00587034 6.70728 -0.773116
              }
            }
          }
        }
      }
    }
  }
  JOINT LeftUpLeg
  {
    OFFSET 5.27774 -0.967797 -0.811858
    CHANNELS 3 Zrotation Xrotation Yrotation
    JOINT LeftUpLegRoll
    {
      OFFSET 0 16.0215 0
      CHANNELS 3 Zrotation Xrotation Yrotation
      JOINT LeftLeg
      {
        OFFSET 0 19.84 0
        CHANNELS 3 Zrotation Xrotation Yrotation
        JOINT LeftLegRoll
        {
          OFFSET 0 20.089 0
          CHANNELS 3 Zrotation Xrotation Yrotation
          JOINT LeftFoot
          {
            OFFSET 0 16.3835 0
            CHANNELS 3 Zrotation Xrotation Yrotation
            JOINT LeftToeBase
            {
              OFFSET 0 13.8496 0
              CHANNELS 3 Zrotation Xrotation Yrotation
              End Site
              {
                OFFSET -0.0263083 6.70728 -0.773117
              }
            }
          }
        }
      }
    }
  }
}
MOTION
Frames: 10
Frame Time: 0.00208333
51.8177 84.6233 28.6607 -0.188086 -7.2939 -2.02913 0.376792 -0.289199 0.0886556 0.754389 3.42471 0.118138 0.753952 5.0697 0.114699 -9.86626 49.0553 4.62214 7.63605 13.5159 -1.86261 72.5449 2.22527 -0.488114 103.853 18.5256 -5.29807 -2.39417e-005 1.07417e-006 -3.2896e-006 -3.6523 -0.0291128 -1.99244 2.05969e-005 -2.66957e-006 -3.01162 8.03007 -4.95138 0.697634 -72.8834 -3.23512 3.07245 -105.441 16.6464 5.22682 -1.42364e-005 9.21884e-012 -1.50583e-006 3.63643 -0.0235143 1.99237 -7.7195e-006 3.49447e-006 3.01161 -8.03008 -4.95139 -0.697625 176.852 -1.58941 4.69065 180 7.01529e-015 178.849 176.513 6.39851 179.976 -1.98545e-006 3.13878e-006 0.0591703 -18.0784 67.2497 18.9238 8.1365 25.2327 -3.48774 -178.333 -0.434707 -0.341075 4.54188e-006 -4.6773e-006 -1.14718 -1.81459 -10.9956 0.140826 -2.07163e-006 1.72054e-006 -0.180116 19.4935 69.0058 -20.4086 -8.13649 25.2327 3.48774 
51.8177 84.6233 28.6607 -0.192561 -7.28087 -2.03462 0.376856 -0.287252 0.0886431 0.754079 3.4286 0.118106 0.753645 5.07359 0.114676 -9.85847 49.0562 4.61043 7.63722 13.5125 -1.86887 72.5437 2.21623 -0.492162 103.852 18.5621 -5.30921 -2.39417e-005 1.07417e-006 -3.2896e-006 -3.6523 -0.0291128 -1.99244 2.05969e-005 -2.66957e-006 -3.01162 8.03007 -4.95138 0.697634 -72.8756 -3.2275 3.06827 -105.449 16.6744 5.2439 -1.42364e-005 9.22202e-012 -1.50583e-006 3.63643 -0.0235143 1.99237 -7.7195e-006 3.49447e-006 3.01161 -8.03008 -4.95139 -0.697625 176.857 -1.58344 4.6866 180 7.01529e-015 178.849 176.513 6.38098 179.975 -1.98545e-006 3.13878e-006 0.0591707 -18.071 67.2402 18.9158 8.1365 25.2327 -3.48774 -178.328 -0.415461 -0.343158 4.54188e-006 -4.6773e-006 -1.14711 -1.8156 -11.0061 0.140363 -2.07163e-006 1.72054e-006 -0.180113 19.4999 69.0127 -20.4154 -8.13649 25.2327 3.48774 
51.8383 84.6256 28.6808 -0.197151 -7.2675 -2.04032 0.376938 -0.285444 0.0886316 0.753761 3.43221 0.118078 0.753329 5.07721 0.114656 -9.85005 49.0579 4.59854 7.63798 13.5085 -1.87489 72.5436 2.20748 -0.496221 103.851 18.5992 -5.31952 -2.39417e-005 1.07417e-006 -3.2896e-006 -3.6523 -0.0291128 -1.99244 2.05969e-005 -2.66957e-006 -3.01162 8.03007 -4.95138 0.697634 -72.8673 -3.21971 3.06399 -105.458 16.7024 5.26101 -1.42364e-005 9.22043e-012 -1.50583e-006 3.63643 -0.0235143 1.99237 -7.7195e-006 3.49447e-006 3.01161 -8.03008 -4.95139 -0.697625 176.861 -1.57756 4.68257 180 7.01529e-015 178.849 176.514 6.3625 179.974 -1.98545e-006 3.13878e-006 0.0591718 -18.0633 67.2303 18.9074 8.1365 25.2327 -3.48774 -178.322 -0.395813 -0.34533 4.54188e-006 -4.6773e-006 -1.14704 -1.81665 -11.0168 0.13986 -2.07163e-006 1.72054e-006 -0.180102 19.5066 69.0199 -20.4225 -8.13649 25.2327 3.48774 
51.8233 84.6226 28.6552 -0.20183 -7.25387 -2.04618 0.377033 -0.283744 0.0886208 0.753437 3.43561 0.118053 0.753007 5.08061 0.114641 -9.84114 49.06 4.5865 7.63843 13.504 -1.88073 72.5445 2.19895 -0.50029 103.849 18.6367 -5.3292 -2.39417e-005 1.07417e-006 -3.2896e-006 -3.6523 -0.0291128 -1.99244 2.05969e-005 -2.66957e-006 -3.01162 8.03007 -4.95138 0.697634 -72.8588 -3.21178 3.05961 -105.467 16.7305 5.27814 -1.42364e-005 9.21725e-012 -1.50583e-006 3.63643 -0.0235143 1.99237 -7.7195e-006 3.49447e-006 3.01161 -8.03008 -4.95139 -0.697625 176.866 -1.57175 4.67854 180 7.01529e-015 178.849 176.514 6.34328 179.973 -1.98545e-006 3.13878e-006 0.0591735 -18.0553 67.22 18.8988 8.1365 25.2327 -3.48774 -178.317 -0.375858 -0.34757 4.54188e-006 -4.6773e-006 -1.14698 -1.81774 -11.0277 0.139325 -2.07163e-006 1.72054e-006 -0.180087 19.5134 69.0273 -20.4298 -8.13649 25.2327 3.48774 
51.8259 84.6154 28.6295 -0.206569 -7.24006 -2.05217 0.377138 -0.282119 0.0886105 0.753108 3.43886 0.11803 0.752681 5.08386 0.114627 -9.83189 49.0625 4.57436 7.63865 13.4992 -1.88643 72.5459 2.19057 -0.504366 103.846 18.6745 -5.33843 -2.39417e-005 1.07417e-006 -3.2896e-006 -3.6523 -0.0291128 -1.99244 2.05969e-005 -2.66957e-006 -3.01162 8.03007 -4.95138 0.697634 -72.85 -3.20376 3.05517 -105.475 16.7586 5.29529 -1.42364e-005 9.22043e-012 -1.50583e-006 3.63643 -0.0235143 1.99237 -7.7195e-006 3.49447e-006 3.01161 -8.03008 -4.95139 -0.697625 176.87 -1.56599 4.67452 180 7.01529e-015 178.849 176.514 6.32355 179.973 -1.98545e-006 3.13878e-006 0.0591756 -18.0472 67.2096 18.8899 8.1365 25.2327 -3.48774 -178.312 -0.355686 -0.349859 4.54188e-006 -4.6773e-006 -1.14693 -1.81884 -11.0385 0.138769 -2.07163e-006 1.72054e-006 -0.180068 19.5203 69.0347 -20.4372 -8.13649 25.2327 3.48774 
51.8356 84.616 28.6385 -0.211341 -7.22614 -2.05821 0.377249 -0.280538 0.0886006 0.752777 3.44202 0.118008 0.752352 5.08702 0.114615 -9.82244 49.0652 4.56217 7.63874 13.4943 -1.89206 72.5477 2.18227 -0.508446 103.843 18.7124 -5.34741 -2.39417e-005 1.07417e-006 -3.2896e-006 -3.6523 -0.0291128 -1.99244 2.05969e-005 -2.66957e-006 -3.01162 8.03007 -4.95138 0.697634 -72.8411 -3.19569 3.0507 -105.484 16.7866 5.31245 -1.42364e-005 9.21566e-012 -1.50583e-006 3.63643 -0.0235143 1.99237 -7.7195e-006 3.49447e-006 3.01161 -8.03008 -4.95139 -0.697625 176.875 -1.56025 4.6705 180 7.01529e-015 178.849 176.514 6.30354 179.972 -1.98545e-006 3.13878e-006 0.0591778 -18.039 67.1989 18.881 8.1365 25.2327 -3.48774 -178.306 -0.33539 -0.352175 4.54188e-006 -4.6773e-006 -1.14688 -1.81996 -11.0495 0.1382 -2.07163e-006 1.72054e-006 -0.180048 19.5273 69.0423 -20.4447 -8.13649 25.2327 3.48774 
51.8246 84.6184 28.6177 -0.216119 -7.2122 -2.06428 0.37736 -0.278967 0.0885907 0.752446 3.44516 0.117987 0.752023 5.09016 0.114603 -9.81294 49.0679 4.54996 7.6388 13.4892 -1.89767 72.5495 2.174 -0.512526 103.84 18.7504 -5.35633 -2.39417e-005 1.07417e-006 -3.2896e-006 -3.6523 -0.0291128 -1.99244 2.05969e-005 -2.66957e-006 -3.01162 8.03007 -4.95138 0.697634 -72.8322 -3.1876 3.04623 -105.493 16.8147 5.32962 -1.42364e-005 9.21884e-012 -1.50583e-006 3.63643 -0.0235143 1.99237 -7.7195e-006 3.49447e-006 3.01161 -8.03008 -4.95139 -0.697625 176.88 -1.55452 4.66648 180 7.01529e-015 178.849 176.514 6.28345 179.971 -1.98545e-006 3.13878e-006 0.0591802 -18.0307 67.1883 18.8721 8.1365 25.2327 -3.48774 -178.301 -0.315064 -0.354498 4.54188e-006 -4.6773e-006 -1.14683 -1.82109 -11.0604 0.137628 -2.07163e-006 1.72054e-006 -0.180026 19.5343 69.0499 -20.4522 -8.13649 25.2327 3.48774 
51.8389 84.6181 28.6326 -0.220877 -7.19831 -2.07031 0.377469 -0.277375 0.0885806 0.752115 3.44834 0.117965 0.751695 5.09334 0.11459 -9.80354 49.0705 4.53777 7.63893 13.4843 -1.90332 72.5512 2.16569 -0.516605 103.837 18.7883 -5.36539 -2.39417e-005 1.07417e-006 -3.2896e-006 -3.6523 -0.0291128 -1.99244 2.05969e-005 -2.66957e-006 -3.01162 8.03007 -4.95138 0.697634 -72.8233 -3.17954 3.04176 -105.502 16.8427 5.34679 -1.42364e-005 9.22202e-012 -1.50583e-006 3.63643 -0.0235143 1.99237 -7.7195e-006 3.49447e-006 3.01161 -8.03008 -4.95139 -0.697625 176.884 -1.54878 4.66246 180 7.01529e-015 178.849 176.514 6.2635 179.97 -1.98545e-006 3.13878e-006 0.0591824 -18.0225 67.1777 18.8632 8.1365 25.2327 -3.48774 -178.295 -0.294799 -0.356807 4.54188e-006 -4.6773e-006 -1.14678 -1.82221 -11.0713 0.137063 -2.07163e-006 1.72054e-006 -0.180006 19.5412 69.0574 -20.4597 -8.13649 25.2327 3.48774 
51.819 84.6332 28.6293 -0.225586 -7.18455 -2.07626 0.377572 -0.275729 0.0885702 0.751788 3.45163 0.117941 0.75137 5.09663 0.114576 -9.79438 49.0729 4.52566 7.63921 13.4796 -1.90906 72.5525 2.15727 -0.520679 103.834 18.826 -5.37478 -2.39417e-005 1.07417e-006 -3.2896e-006 -3.6523 -0.0291128 -1.99244 2.05969e-005 -2.66957e-006 -3.01162 8.03007 -4.95138 0.697634 -72.8146 -3.17154 3.03735 -105.51 16.8707 5.36396 -1.42364e-005 9.22043e-012 -1.50583e-006 3.63643 -0.0235143 1.99237 -7.7195e-006 3.49447e-006 3.01161 -8.03008 -4.95139 -0.697625 176.889 -1.543 4.65843 180 7.01529e-015 178.849 176.514 6.24393 179.969 -1.98545e-006 3.13878e-006 0.0591844 -18.0145 67.1673 18.8544 8.1365 25.2327 -3.48774 -178.29 -0.274689 -0.359082 4.54188e-006 -4.6773e-006 -1.14672 -1.82331 -11.0822 0.136513 -2.07163e-006 1.72054e-006 -0.179988 19.5482 69.0648 -20.4671 -8.13649 25.2327 3.48774 
51.833 84.6319 28.6444 -0.23022 -7.171 -2.08207 0.377663 -0.273996 0.0885592 0.751466 3.4551 0.117915 0.75105 5.1001 0.114559 -9.7856 49.0749 4.51366 7.63974 13.4753 -1.91495 72.553 2.14867 -0.524745 103.832 18.8634 -5.38468 -2.39417e-005 1.07417e-006 -3.2896e-006 -3.6523 -0.0291128 -1.99244 2.05969e-005 -2.66957e-006 -3.01162 8.03007 -4.95138 0.697634 -72.8061 -3.16366 3.033 -105.519 16.8988 5.38112 -1.42364e-005 9.21884e-012 -1.50583e-006 3.63643 -0.0235143 1.99237 -7.7195e-006 3.49447e-006 3.01161 -8.03008 -4.95139 -0.697625 176.893 -1.53717 4.6544 180 7.01529e-015 178.849 176.514 6.22491 179.969 -1.98545e-006 3.13878e-006 0.0591859 -18.0066 67.1571 18.8459 8.1365 25.2327 -3.48774 -178.285 -0.254826 -0.361302 4.54188e-006 -4.6773e-006 -1.14666 -1.82438 -11.093 0.135987 -2.07163e-006 1.72054e-006 -0.179974 19.5549 69.0721 -20.4743 -8.13649 25.2327 3.48774 
